<?xml version="1.0" encoding="utf-8"?>
<!-- Generator: Adobe Illustrator 22.1.0, SVG Export Plug-In . SVG Version: 6.00 Build 0)  -->
<svg version="1.1" id="Layer_30" xmlns="http://www.w3.org/2000/svg" xmlns:xlink="http://www.w3.org/1999/xlink" x="0px" y="0px"
	 viewBox="0 0 300 125" style="enable-background:new 0 0 300 125;" xml:space="preserve">
<style type="text/css">
	.st0{fill:#00346D;}
	.st1{fill:#F68B1F;}
</style>
<path class="st0" d="M260.1,80.1c0-6.5,5.7-11.8,13.4-11.8c7.7,0,13.4,5.3,13.4,11.8c0,6.5-5.7,11.9-13.4,11.9
	C265.8,92,260.1,86.6,260.1,80.1 M273.4,86c3.5,0,6.3-2.6,6.3-5.9c0-3.3-2.8-5.9-6.3-5.9c-3.5,0-6.2,2.5-6.2,5.9
	C267.3,83.4,270,86,273.4,86"/>
<polygon class="st0" points="103.3,75.4 110.7,75.4 110.7,84.7 132.7,84.7 132.7,90.7 103.3,90.7 "/>
<polygon class="st0" points="287.2,44.7 287.2,52.5 293,52.5 293,58.7 287.2,58.7 287.2,67.8 280,67.8 280,44.7 "/>
<path class="st0" d="M256.3,44.7c0,6.5-0.4,11.8-9.9,16.3l3.5,5.3c4.1-1.2,8.7-4.8,10.5-7.9c1.8,3.2,6.4,6.8,10.5,7.9l3.5-5.3
	c-9.5-4.4-9.9-9.8-9.9-16.3H256.3z"/>
<polygon class="st0" points="177.6,55.6 173.8,55.6 173.8,44.8 167,44.8 167,91.5 173.8,91.5 173.8,62.4 177.6,62.4 177.6,91.5 
	184.6,91.5 184.6,44.8 177.6,44.8 "/>
<polygon class="st0" points="232,55.6 228.7,55.6 228.7,44.8 221.8,44.8 221.8,91.5 228.7,91.5 228.7,62.4 232,62.4 232,91.5 
	239,91.5 239,44.8 232,44.8 "/>
<polygon class="st0" points="125.5,69.4 120,69.4 120,63.4 125.5,63.4 125.5,59.4 120,59.4 120,53.4 125.5,53.4 125.5,44.7 
	132.7,44.7 132.7,79.1 125.5,79.1 "/>
<path class="st0" d="M204.1,42.7v3.7h-8.2v5.7h4.1c-2.4,1.6-3.8,4.7-3.8,8c0,5.7,4.9,10.5,11.6,10.5c6.8,0,11.6-4.9,11.6-10.5
	c0-3.3-1.4-6.4-3.8-8h4.1v-5.7h-8.2v-3.7H204.1z M212.7,60c0,2.5-2.1,4.9-4.9,4.9c-2.8,0-4.9-2.4-4.9-4.9c0-2.5,2.1-4.9,4.9-4.9
	C210.5,55.1,212.7,57.5,212.7,60"/>
<path class="st0" d="M101.5,42.7v3.7h-9.1v5.7h5.1c-2.4,1.6-3.7,4.6-3.7,7.5c0,5.7,4.9,10.3,11.6,10.3c6.8,0,11.6-4.6,11.6-10.3
	c0-2.9-1.4-6-3.7-7.5h5.1v-5.7h-9.1v-3.7H101.5z M110.2,59.6c0,2.5-2.1,4.6-4.9,4.6c-2.8,0-4.9-2.2-4.9-4.6c0-2.5,2.1-4.6,4.9-4.6
	C108.1,54.9,110.2,57.1,110.2,59.6"/>
<polygon class="st0" points="164.5,69.9 152.8,69.9 152.8,52.2 162.4,52.2 162.4,46.1 145.4,46.1 145.4,76.1 164.5,76.1 "/>
<path class="st1" d="M29.5,52c10.5,0,19-8.5,19-19L66,33l0,58.5H44.1V66.6H29.5v24.9H7.6V33h21.9V52z"/>
</svg>
