<?xml version="1.0" encoding="utf-8"?>
<!-- Generator: Adobe Illustrator 22.1.0, SVG Export Plug-In . SVG Version: 6.00 Build 0)  -->
<svg version="1.1" id="레이어_1" xmlns="http://www.w3.org/2000/svg" xmlns:xlink="http://www.w3.org/1999/xlink" x="0px"
	 y="0px" viewBox="0 0 300 125" style="enable-background:new 0 0 300 125;" xml:space="preserve">
<style type="text/css">
	.st0{fill:#004998;}
	.st1{fill:#E83434;}
</style>
<g id="axa">
	<g>
		<g>
			<path class="st0" d="M58.7,3.5v118.6H254V3.5H58.7z M201,110c-0.7-4.2-1.2-6.2-2-8.7l-6.1-19.6h-27.4l-4.9,6.5l4.4,13.3
				c0.8,2.8,1.8,5,3.4,8.5h-15.6l-2.5-8.5l-6.2,8.5h-12.5l-2.6-8.5l-6.6,8.5h-11.7h-0.8c0.3-0.3,0.6-0.5,0.8-0.8
				c3.2-2.8,5.2-5.4,6.9-7.6l7.9-10.5l-3.1-9.4H95.2L73.9,110H60.7c5-4.3,6.3-5.8,8.2-8.2l40.4-53.4c0.6-0.8,1-1.5,1.5-2.3
				c0.8-1.2,1.4-2.6,1.8-4.4h13.1c0,2.9,0.5,4.5,1,6.8l9.2,28.9l4.7-6.2l-7.6-22.9c-0.6-1.7-1.2-3.9-2.6-6.5h16
				c0.5,2.5,0.8,4.6,1.5,6.8l2.9,9.1l6.8-9.1c1.5-2.1,3.7-4.4,4.6-6.8h14c-2.7,2.2-4.4,4.4-6.1,6.6l-15.4,20.5l2.6,8.5l22.1-28.9
				c0.6-0.8,1.2-1.6,1.8-2.5c0.8-1.2,1.5-2.5,1.9-4.2h13c0.2,2.3,0.5,4.2,1.1,6.4l16.7,53.3c0.8,2.8,1.3,4.6,3.5,8.6
				C217.5,110,201,110,201,110z"/>
			<polygon class="st0" points="103,73 121.1,73 115.6,56.3 			"/>
			<polygon class="st0" points="139.8,87.2 142.7,96.3 147.3,90.2 144.1,81.2 			"/>
			<polygon class="st0" points="171.8,73 189.2,73 183.8,56.3 			"/>
		</g>
		<polygon class="st1" points="165.3,38.9 176.4,38.9 201.9,5.2 190.8,5.2 		"/>
	</g>
</g>
</svg>
